<?xml version="1.0" standalone="no"?>
<!DOCTYPE svg PUBLIC "-//W3C//DTD SVG 20010904//EN"
 "http://www.w3.org/TR/2001/REC-SVG-20010904/DTD/svg10.dtd">
<svg version="1.0" xmlns="http://www.w3.org/2000/svg"
 width="512.000000pt" height="512.000000pt" viewBox="0 0 512.000000 512.000000"
 preserveAspectRatio="xMidYMid meet">
<metadata>
Created by potrace 1.14, written by Peter Selinger 2001-2017
</metadata>
<g transform="translate(0.000000,512.000000) scale(0.100000,-0.100000)"
fill="#000000" stroke="none">
<path d="M0 2560 l0 -2560 2560 0 2560 0 0 2560 0 2560 -2560 0 -2560 0 0
-2560z m2178 943 l-3 -158 -72 -7 c-222 -22 -440 -170 -538 -365 -23 -48 -69
-202 -62 -209 2 -2 35 5 73 16 135 39 292 23 424 -43 78 -39 190 -144 248
-236 161 -248 142 -575 -46 -809 -91 -114 -196 -183 -332 -219 -90 -24 -291
-23 -379 1 -245 67 -418 263 -499 566 -23 86 -26 113 -26 290 0 222 14 322 69
487 70 209 176 383 318 520 98 94 162 140 267 193 136 69 356 124 508 129 l53
1 -3 -157z m1802 -3 l0 -160 -48 0 c-65 0 -152 -24 -239 -65 -163 -76 -275
-185 -337 -328 -25 -56 -58 -187 -48 -187 4 0 36 9 70 20 79 25 218 27 306 4
189 -49 377 -235 442 -439 34 -105 42 -251 21 -352 -75 -348 -355 -562 -707
-539 -272 17 -446 139 -579 403 -114 229 -130 587 -40 913 31 109 107 275 174
377 78 117 236 273 343 337 162 97 411 171 590 175 l52 1 0 -160z"/>
</g>
</svg>
