<?xml version="1.0" standalone="no"?>
<!DOCTYPE svg PUBLIC "-//W3C//DTD SVG 20010904//EN"
 "http://www.w3.org/TR/2001/REC-SVG-20010904/DTD/svg10.dtd">
<svg version="1.0" xmlns="http://www.w3.org/2000/svg"
 width="512.000000pt" height="512.000000pt" viewBox="0 0 512.000000 512.000000"
 preserveAspectRatio="xMidYMid meet">
<metadata>
Created by potrace 1.14, written by Peter Selinger 2001-2017
</metadata>
<g transform="translate(0.000000,512.000000) scale(0.100000,-0.100000)"
fill="#000000" stroke="none">
<path d="M0 2560 l0 -2560 2560 0 2560 0 0 2560 0 2560 -2560 0 -2560 0 0
-2560z m4140 1160 l0 -560 -89 0 -89 0 -7 68 c-17 179 -57 327 -125 464 -54
108 -92 161 -170 239 -85 86 -174 143 -274 176 -73 24 -99 27 -273 31 l-193 4
0 -1581 0 -1581 270 0 270 0 0 -65 0 -65 -915 0 -915 0 0 65 0 65 285 0 285 0
0 1581 0 1581 -192 -4 c-179 -4 -199 -6 -273 -32 -188 -65 -332 -196 -440
-399 -72 -135 -111 -279 -130 -479 l-7 -68 -89 0 -89 0 0 560 0 560 1580 0
1580 0 0 -560z"/>
</g>
</svg>
